<svg width="13" height="12" viewBox="0 0 13 12" fill="none" xmlns="http://www.w3.org/2000/svg">
<path d="M0.178247 -6.64455e-06C0.0766383 -0.00017721 -0.00446306 0.0796395 0.000216483 0.175215L0.454394 9.4594C0.496369 10.3186 1.24476 10.9928 2.158 10.9943L10.8056 11.0088C11.7189 11.0103 12.4695 10.3387 12.5144 9.47964L12.9998 0.197037C13.0048 0.101477 12.924 0.0213889 12.8223 0.0212183L0.178247 -6.64455e-06ZM8.7758 1.35479C8.7763 1.05857 9.03153 0.819072 9.34614 0.819601C9.66076 0.820129 9.91518 1.06048 9.91468 1.3567L9.90296 8.32657C9.90246 8.62278 9.64723 8.86228 9.33262 8.86175C9.018 8.86123 8.76358 8.62087 8.76408 8.32465L8.7758 1.35479ZM5.92861 1.35001C5.9291 1.05379 6.18433 0.814293 6.49895 0.814821C6.81356 0.815349 7.06798 1.0557 7.06748 1.35192L7.05576 8.32179C7.05527 8.61801 6.80004 8.8575 6.48542 8.85697C6.17081 8.85645 5.91639 8.61609 5.91689 8.31987L5.92861 1.35001ZM3.08141 1.34523C3.08191 1.04901 3.33714 0.809514 3.65175 0.810042C3.96637 0.81057 4.22079 1.05092 4.22029 1.34714L4.20857 8.31701C4.20807 8.61323 3.95285 8.85272 3.63823 8.85219C3.32362 8.85167 3.0692 8.61131 3.06969 8.3151L3.08141 1.34523Z" fill="white"/>
</svg>
