<svg width="15" height="6" viewBox="0 0 15 6" fill="none" xmlns="http://www.w3.org/2000/svg">
<path d="M13.5601 2.11541L10.3874 2.11008L10.3883 1.58425C10.3897 0.713033 9.61613 0.00548738 8.66035 0.00388165L6.35293 5.11163e-06C5.39715 -0.00160062 4.62117 0.703342 4.61971 1.57456L4.61883 2.10038L1.44612 2.09505C0.649659 2.09372 0.00298828 2.68119 0.00176859 3.40719L1.7982e-06 4.45883C-0.000486112 4.74925 0.25737 4.98509 0.575974 4.98562L14.4205 5.00888C14.7391 5.00942 14.9978 4.77445 14.9983 4.48403L15 3.43238C15.0012 2.70639 14.3566 2.11674 13.5601 2.11541ZM5.77342 1.5765C5.77391 1.28664 6.03317 1.05111 6.35116 1.05165L8.65858 1.05553C8.97658 1.05606 9.23504 1.29246 9.23456 1.58232L9.23367 2.10814L5.77254 2.10232L5.77342 1.5765Z" fill="white"/>
</svg>
