<svg width="18" height="17" viewBox="0 0 18 17" fill="none" xmlns="http://www.w3.org/2000/svg">
<path d="M9.61992 0.882357L11.7063 4.95599C11.753 5.059 11.827 5.14817 11.9207 5.21435C12.0145 5.28055 12.1247 5.32141 12.24 5.33274L16.8738 6.01559C17.0062 6.03231 17.1311 6.08532 17.2336 6.16837C17.3364 6.25144 17.4124 6.36112 17.4531 6.48461C17.4937 6.60811 17.4975 6.74032 17.4636 6.86575C17.4299 6.99118 17.3598 7.10468 17.2621 7.19293L13.8413 10.3482C13.7902 10.4427 13.7636 10.5477 13.7636 10.6543C13.7636 10.761 13.7902 10.866 13.8413 10.9605L14.4963 15.4345C14.5242 15.5637 14.5129 15.6981 14.4637 15.8213C14.4145 15.9445 14.3296 16.0512 14.2191 16.1284C14.1087 16.2056 13.9776 16.2502 13.8416 16.2567C13.7056 16.263 13.5706 16.2308 13.4531 16.1642L9.32878 14.0451C9.22204 13.9984 9.10628 13.9742 8.98914 13.9742C8.87201 13.9742 8.75624 13.9984 8.6495 14.0451L4.5252 16.1642C4.40764 16.2308 4.27267 16.263 4.13671 16.2567C4.00072 16.2502 3.86957 16.2056 3.75914 16.1284C3.64871 16.0512 3.56375 15.9445 3.51457 15.8213C3.46536 15.6981 3.45406 15.5637 3.48202 15.4345L4.25834 10.9605C4.29173 10.8566 4.29811 10.7464 4.27696 10.6395C4.25579 10.5327 4.20774 10.4326 4.13703 10.3482L0.716303 7.1694C0.625576 7.08018 0.561883 6.96845 0.532231 6.84646C0.502579 6.72444 0.508115 6.59687 0.548192 6.47769C0.588293 6.35853 0.661388 6.25239 0.759521 6.17086C0.857655 6.08937 0.976987 6.03563 1.10447 6.01559L5.73824 5.35627C5.85359 5.34494 5.96379 5.3041 6.05756 5.2379C6.15133 5.17173 6.22532 5.08255 6.27196 4.97951L8.35837 0.905909C8.41421 0.790595 8.50214 0.692735 8.6123 0.623387C8.72242 0.554064 8.85036 0.516013 8.98161 0.513568C9.11286 0.511123 9.2422 0.544357 9.35499 0.609541C9.46779 0.674702 9.55956 0.769198 9.61992 0.882357Z" stroke="#FFF505" stroke-linecap="round" stroke-linejoin="round"/>
</svg>
