<svg width="28" height="32" viewBox="0 0 28 32" fill="none" xmlns="http://www.w3.org/2000/svg">
<path d="M0 6.75C0 3.9377 0 2.53155 0.716186 1.54581C0.947485 1.22745 1.22745 0.947485 1.54581 0.716186C2.53155 0 3.9377 0 6.75 0H21.25C24.0623 0 25.4685 0 26.4542 0.716186C26.7726 0.947485 27.0525 1.22745 27.2838 1.54581C28 2.53155 28 3.9377 28 6.75V22.8136C28 28.0044 28 30.5998 26.7633 31.4148C26.3833 31.6653 25.947 31.8176 25.4936 31.8579C24.0183 31.9891 22.4037 29.9571 19.1745 25.8931L16.1139 22.0413C15.2536 20.9586 14.8234 20.4172 14.2684 20.3163C14.0909 20.284 13.9091 20.284 13.7316 20.3163C13.1766 20.4172 12.7464 20.9586 11.8861 22.0413L8.82549 25.8931C5.59627 29.9571 3.98165 31.9891 2.50639 31.8579C2.053 31.8176 1.61671 31.6653 1.23665 31.4148C0 30.5998 0 28.0044 0 22.8136V6.75Z" fill="#292556"/>
</svg>
