<svg width="33" height="38" viewBox="0 0 33 38" fill="none" xmlns="http://www.w3.org/2000/svg">
<path d="M5.33283 1.83047C8.27213 0.677459 12.2214 0 16.5 0C20.7786 0 24.7279 0.677459 27.6672 1.83047C29.134 2.40586 30.423 3.12854 31.3686 4.00547C32.3209 4.88868 33 6.00627 33 7.30769V9.1253C32.4012 9.429 31.721 9.72287 30.9615 10.001C27.3402 11.3268 22.228 12.1795 16.5 12.1795C10.772 12.1795 5.65976 11.3268 2.0385 10.001C1.27896 9.72287 0.598813 9.42899 0 9.1253V7.30769C0 6.00627 0.679136 4.88868 1.63144 4.00547C2.57698 3.12854 3.86602 2.40586 5.33283 1.83047Z" fill="#292556"/>
<path d="M0 12.3855V17.4074C0.598813 17.711 1.27896 18.0049 2.0385 18.283C5.65976 19.6088 10.772 20.4615 16.5 20.4615C22.228 20.4615 27.3402 19.6088 30.9615 18.283C31.721 18.0049 32.4012 17.711 33 17.4074V12.3855C32.7219 12.499 32.4376 12.6088 32.1476 12.715C28.0632 14.2103 22.5303 15.1026 16.5 15.1026C10.4697 15.1026 4.93676 14.2103 0.852441 12.715C0.562396 12.6088 0.278055 12.499 0 12.3855Z" fill="#292556"/>
<path d="M0 25.6894V20.6676C0.278055 20.781 0.562396 20.8908 0.852441 20.997C4.93676 22.4924 10.4697 23.3846 16.5 23.3846C22.5303 23.3846 28.0632 22.4924 32.1476 20.997C32.4376 20.8908 32.7219 20.781 33 20.6676V25.6894C32.4012 25.9931 31.721 26.287 30.9615 26.5651C27.3402 27.8909 22.228 28.7436 16.5 28.7436C10.772 28.7436 5.65976 27.8909 2.0385 26.5651C1.27896 26.287 0.598813 25.9931 0 25.6894Z" fill="#292556"/>
<path d="M0 28.9496V30.6923C0 31.9937 0.679136 33.1113 1.63144 33.9945C2.57698 34.8715 3.86602 35.5941 5.33283 36.1695C8.27213 37.3225 12.2214 38 16.5 38C20.7786 38 24.7279 37.3225 27.6672 36.1695C29.134 35.5941 30.423 34.8715 31.3686 33.9945C32.3209 33.1113 33 31.9937 33 30.6923V28.9496C32.7219 29.0631 32.4376 29.1729 32.1476 29.2791C28.0632 30.7744 22.5303 31.6667 16.5 31.6667C10.4697 31.6667 4.93676 30.7744 0.852441 29.2791C0.562396 29.1729 0.278055 29.0631 0 28.9496Z" fill="#292556"/>
</svg>
