<svg width="15" height="15" viewBox="0 0 15 15" fill="none" xmlns="http://www.w3.org/2000/svg">
<path d="M8.01038 0.826202L9.72804 4.28153C9.76645 4.36891 9.82737 4.44455 9.90457 4.50068C9.98177 4.55683 10.0725 4.59149 10.1674 4.6011L13.9823 5.1803C14.0913 5.19449 14.1941 5.23945 14.2785 5.3099C14.3631 5.38036 14.4257 5.47339 14.4592 5.57814C14.4927 5.68289 14.4957 5.79503 14.4678 5.90142C14.4401 6.00782 14.3824 6.10409 14.3019 6.17894L11.4857 8.85533C11.4437 8.93543 11.4217 9.02453 11.4217 9.11497C11.4217 9.20543 11.4437 9.29452 11.4857 9.37463L12.0249 13.1696C12.0479 13.2792 12.0386 13.3931 11.9981 13.4977C11.9577 13.6022 11.8877 13.6927 11.7968 13.7582C11.7059 13.8237 11.5979 13.8615 11.4859 13.867C11.374 13.8723 11.2629 13.845 11.1661 13.7886L7.77069 11.9911C7.68282 11.9514 7.58751 11.9309 7.49108 11.9309C7.39464 11.9309 7.29934 11.9514 7.21146 11.9911L3.81605 13.7886C3.71926 13.845 3.60815 13.8723 3.49621 13.867C3.38425 13.8615 3.27628 13.8237 3.18537 13.7582C3.09446 13.6927 3.02451 13.6022 2.98402 13.4977C2.94351 13.3931 2.93421 13.2792 2.95723 13.1696L3.59634 9.37463C3.62383 9.28655 3.62909 9.19303 3.61168 9.10243C3.59425 9.01182 3.55468 8.92693 3.49648 8.85533L0.68029 6.15899C0.605598 6.08331 0.553161 5.98854 0.528749 5.88506C0.504338 5.78156 0.508895 5.67336 0.541889 5.57226C0.574903 5.47119 0.63508 5.38116 0.715871 5.31201C0.796661 5.24288 0.894904 5.1973 0.999859 5.1803L4.81471 4.62105C4.90967 4.61144 5.00039 4.57681 5.07759 4.52065C5.15479 4.46452 5.2157 4.38889 5.2541 4.30148L6.97178 0.846178C7.01775 0.748367 7.09014 0.66536 7.18083 0.606538C7.2715 0.547737 7.37682 0.515461 7.48488 0.513388C7.59293 0.511314 7.69941 0.539503 7.79227 0.594794C7.88513 0.650064 7.96069 0.730218 8.01038 0.826202Z" stroke="#D9D123" stroke-linecap="round" stroke-linejoin="round"/>
</svg>
