<svg width="13" height="12" viewBox="0 0 13 12" fill="none" xmlns="http://www.w3.org/2000/svg">
<path d="M0.178217 9.89108e-07C0.0766079 -0.000169577 -0.0044936 0.0796473 0.000185948 0.175223L0.454365 9.45943C0.49634 10.3187 1.24473 10.9928 2.15797 10.9943L10.8056 11.0088C11.7189 11.0104 12.4695 10.3388 12.5144 9.47967L12.9998 0.197045C13.0048 0.101485 12.924 0.0213966 12.8223 0.021226L0.178217 9.89108e-07ZM8.77579 1.3548C8.77629 1.05858 9.03152 0.819082 9.34613 0.81961C9.66075 0.820138 9.91517 1.06049 9.91467 1.35671L9.90295 8.32659C9.90245 8.62281 9.64723 8.86231 9.33261 8.86178C9.01799 8.86125 8.76357 8.6209 8.76407 8.32468L8.77579 1.3548ZM5.92859 1.35002C5.92909 1.0538 6.18432 0.814303 6.49893 0.814831C6.81355 0.815359 7.06797 1.05571 7.06747 1.35193L7.05575 8.32181C7.05525 8.61803 6.80002 8.85753 6.48541 8.857C6.17079 8.85647 5.91637 8.61612 5.91687 8.3199L5.92859 1.35002ZM3.08139 1.34524C3.08189 1.04902 3.33712 0.809523 3.65173 0.810051C3.96635 0.810579 4.22077 1.05093 4.22027 1.34715L4.20855 8.31703C4.20805 8.61325 3.95282 8.85275 3.63821 8.85222C3.32359 8.85169 3.06917 8.61134 3.06967 8.31512L3.08139 1.34524Z" fill="white"/>
</svg>
