<svg width="15" height="6" viewBox="0 0 15 6" fill="none" xmlns="http://www.w3.org/2000/svg">
<path d="M13.5601 2.1154L10.3874 2.11007L10.3882 1.58425C10.3897 0.713032 9.61611 0.00548737 8.66033 0.00388164L6.35291 5.11162e-06C5.39714 -0.00160062 4.62116 0.703341 4.6197 1.57456L4.61882 2.10038L1.44611 2.09505C0.649658 2.09371 0.00298827 2.68119 0.00176858 3.40718L1.7982e-06 4.45882C-0.000486111 4.74924 0.257369 4.98508 0.575973 4.98561L14.4205 5.00887C14.7391 5.00941 14.9977 4.77444 14.9982 4.48402L15 3.43238C15.0012 2.70638 14.3565 2.11674 13.5601 2.1154ZM5.77341 1.5765C5.7739 1.28664 6.03316 1.05111 6.35115 1.05165L8.65857 1.05552C8.97656 1.05606 9.23502 1.29245 9.23454 1.58231L9.23365 2.10813L5.77253 2.10232L5.77341 1.5765Z" fill="white"/>
</svg>
