<svg width="15" height="15" viewBox="0 0 15 15" fill="none" xmlns="http://www.w3.org/2000/svg">
<path d="M8.01036 0.8262L9.72802 4.28152C9.76643 4.3689 9.82735 4.44454 9.90455 4.50067C9.98174 4.55682 10.0725 4.59148 10.1674 4.60109L13.9822 5.18029C14.0912 5.19448 14.1941 5.23944 14.2785 5.30989C14.3631 5.38035 14.4257 5.47338 14.4592 5.57813C14.4926 5.68288 14.4957 5.79502 14.4678 5.90141C14.4401 6.0078 14.3824 6.10407 14.3019 6.17893L11.4857 8.85532C11.4436 8.93541 11.4217 9.02451 11.4217 9.11495C11.4217 9.20541 11.4436 9.2945 11.4857 9.37461L12.0249 13.1695C12.0479 13.2792 12.0386 13.3931 11.9981 13.4976C11.9576 13.6021 11.8877 13.6927 11.7968 13.7582C11.7059 13.8237 11.5979 13.8614 11.4859 13.867C11.374 13.8723 11.2629 13.845 11.1661 13.7886L7.77068 11.991C7.6828 11.9514 7.5875 11.9309 7.49106 11.9309C7.39463 11.9309 7.29932 11.9514 7.21145 11.991L3.81604 13.7886C3.71926 13.845 3.60814 13.8723 3.4962 13.867C3.38425 13.8614 3.27627 13.8237 3.18536 13.7582C3.09445 13.6927 3.0245 13.6021 2.98401 13.4976C2.9435 13.3931 2.9342 13.2792 2.95722 13.1695L3.59634 9.37461C3.62383 9.28653 3.62908 9.19301 3.61167 9.10241C3.59424 9.0118 3.55468 8.92691 3.49647 8.85532L0.680289 6.15897C0.605596 6.0833 0.55316 5.98852 0.528748 5.88505C0.504337 5.78155 0.508894 5.67335 0.541888 5.57225C0.574902 5.47118 0.635079 5.38115 0.715869 5.312C0.79666 5.24287 0.894902 5.19729 0.999857 5.18029L4.8147 4.62104C4.90965 4.61143 5.00038 4.5768 5.07758 4.52065C5.15478 4.46451 5.21569 4.38888 5.25409 4.30147L6.97177 0.846177C7.01774 0.748366 7.09013 0.665359 7.18082 0.606537C7.27148 0.547736 7.37681 0.51546 7.48486 0.513387C7.59292 0.511313 7.69939 0.539502 7.79226 0.594793C7.88512 0.650063 7.96067 0.730217 8.01036 0.8262Z" stroke="#FFD700" stroke-linecap="round" stroke-linejoin="round"/>
</svg>
